# xmcd
#
# Track frame offsets: 
#        150
#        18585
#        41247
#        54751
#        67013
#        77636
#        83722
#        89437
#        102067
#        116550
#        135158
#        145210
#        158416
#        168439
#        187278
#        200194
#        210379
#        224150
#        237076
#        250096
#        263983
#        277130
#        291695
#        300418
#        309981
#        316528
#        327834
#        335953
#
# Disc length: 4650 seconds
#
# Revision: 1
# Processed by: cddbd v1.5.2PL0 Copyright (c) Steve Scherf et al.
# Submitted via: ExactAudioCopy v1.3
#
DISCID=a012281c
DTITLE=Various Artist - Louisiana Hayride CD 09 (Live Apr 1958)
DYEAR=2017
DGENRE=Country
TTITLE0=Johnny Bailes - (talk about anniversary picture) I Saw The Lig
TTITLE0=ht
TTITLE1=The Browns - I Heard The Bluebirds Sing
TTITLE2=The Browns - Ain't No Way in the World
TTITLE3=The Browns - The Man In The Moon
TTITLE4=Faron Young - (talk about the show's history) If You Ain't Lov
TTITLE4=in' You Ain't Livin'
TTITLE5=Faron Young - Sweet Dreams
TTITLE6=Faron Young - I've Got Five Dollars And It's Saturday Night
TTITLE7=Faron Young - Rosalee's Gonna Get Married
TTITLE8=Smokey Stover - Family Reunion
TTITLE9=Jimmie Davis - Come Home, It's Suppertime
TTITLE10=Jimmie Davis - My Lord Will Lead Me Home
TTITLE11=Jimmie Davis - You Are My Sunshine
TTITLE12=Jimmie Davis and Friends - You Are My Sunshine (encore)
TTITLE13=Bob Shelton - Keep Them Cold Icy Fingers Off Of Me
TTITLE14=Margie Singleton - Angel Hands
TTITLE15=Margie Singleton - Face To The Wall
TTITLE16=Johnny Mathis - The Same Old Me
TTITLE17=Melvin Endsley - Knee Deep In The Blues
TTITLE18=Melvin Endsley - Singin' The Blues
TTITLE19=Melvin Endsley - Jambalaya
TTITLE20=Martha Lynn - (jingle) The End Of The World
TTITLE21=Ray Jackson - (10th anniversary ads) So Used To Lovin' You
TTITLE22=Webb Pierce - Slowly
TTITLE23=Webb Pierce and Buddy Attaway - In The Jailhouse Now
TTITLE24=Frank Page - (opening theme and talk with Faron Young)
TTITLE25=Billy Walker - It'll Take A While
TTITLE26=Bob Luman - Love Is A Precious Thing
TTITLE27=Faron Young - I Miss You Already
EXTD=
EXTT0=
EXTT1=
EXTT2=
EXTT3=
EXTT4=
EXTT5=
EXTT6=
EXTT7=
EXTT8=
EXTT9=
EXTT10=
EXTT11=
EXTT12=
EXTT13=
EXTT14=
EXTT15=
EXTT16=
EXTT17=
EXTT18=
EXTT19=
EXTT20=
EXTT21=
EXTT22=
EXTT23=
EXTT24=
EXTT25=
EXTT26=
EXTT27=
PLAYORDER=
